<?xml version="1.0" encoding="iso-8859-1"?>
<!-- Generator: Adobe Illustrator 27.0.0, SVG Export Plug-In . SVG Version: 6.00 Build 0)  -->
<svg version="1.1" baseProfile="basic" id="Layer_1"
	 xmlns="http://www.w3.org/2000/svg" xmlns:xlink="http://www.w3.org/1999/xlink" x="0px" y="0px" viewBox="0 0 50 50"
	 xml:space="preserve">
<g>
	<polygon style="fill:#2DEA55;" points="32,47 28,47 28,29 22,29 22,47 18,47 18,25 32,25 	"/>
</g>
<g>
	<rect x="35" y="3" style="fill:#AF87CE;" width="4" height="10"/>
</g>
<g>
	<polygon style="fill:#16D6FA;" points="44,47 6,47 6,17 10,17 10,43 40,43 40,17 44,17 	"/>
</g>
<g>
	<polygon style="fill:#FF64BD;" points="47.021,23.55 25,5.581 2.979,23.55 0.449,20.45 25,0.419 49.551,20.45 	"/>
</g>
<g>
	<polygon style="fill:#D8007C;" points="35,8.578 35,13.741 39,17.005 39,11.842 	"/>
</g>
<g>
	<rect x="18" y="43" transform="matrix(6.123234e-17 -1 1 6.123234e-17 -25 65)" style="fill:#00A4FF;" width="4" height="4"/>
</g>
<g>
	<rect x="28" y="43" transform="matrix(6.123234e-17 -1 1 6.123234e-17 -15 75)" style="fill:#00A4FF;" width="4" height="4"/>
</g>
</svg>